<?xml version="1.0" encoding="utf-8"?>
<!-- Generator: Adobe Illustrator 24.0.1, SVG Export Plug-In . SVG Version: 6.00 Build 0)  -->
<svg version="1.1" id="Capa_1" xmlns="http://www.w3.org/2000/svg" xmlns:xlink="http://www.w3.org/1999/xlink" x="0px" y="0px"
	 viewBox="0 0 211.6 211.6" style="enable-background:new 0 0 211.6 211.6;" xml:space="preserve">
<g>
	<g>
		<path d="M105.8,7C51.4,7,7,51.4,7,105.8v6.6h70.4V99.3h-57c3.4-44.2,40.3-79.1,85.4-79.1s82,34.9,85.4,79.1h-56.8v13.2h70.2v-6.6
			C204.6,51.4,160.3,7,105.8,7z"/>
	</g>
</g>
<g>
	<g>
		<path d="M198.1,99.3h-62.9c-3.6,0-6.6,3-6.6,6.6s3,6.6,6.6,6.6h56.1c-3.4,44.2-40.3,79.1-85.4,79.1s-82.1-35-85.4-79.2h55
			c3.6,0,6.6-3,6.6-6.6s-3-6.6-6.6-6.6H13.6c-3.6,0-6.6,3-6.6,6.6c0,54.4,44.4,98.8,98.8,98.8s98.8-44.4,98.8-98.8
			C204.6,102.2,201.7,99.3,198.1,99.3z"/>
	</g>
</g>
<g>
	<g>
		<path d="M105.8,71.5c-18.9,0-34.3,15.4-34.3,34.3s15.4,34.3,34.3,34.3s34.3-15.4,34.3-34.3S124.7,71.5,105.8,71.5z M105.8,126.9
			c-11.6,0-21.1-9.4-21.1-21.1s9.4-21.1,21.1-21.1s21.1,9.4,21.1,21.1S117.5,126.9,105.8,126.9z"/>
	</g>
</g>
</svg>
